<?xml version="1.0" encoding="utf-8"?>
<!-- Generator: Adobe Illustrator 17.1.0, SVG Export Plug-In . SVG Version: 6.00 Build 0)  -->
<!DOCTYPE svg PUBLIC "-//W3C//DTD SVG 1.1//EN" "http://www.w3.org/Graphics/SVG/1.1/DTD/svg11.dtd">
<svg version="1.1" xmlns="http://www.w3.org/2000/svg" xmlns:xlink="http://www.w3.org/1999/xlink" x="0px" y="0px"
	 viewBox="0 0 48 48" enable-background="new 0 0 48 48" xml:space="preserve">
<g id="Layer_1">
	<g id="picture">
		<g>
			<g>
				<path fill="#F5F5F5" d="M42,48H6c-3.3,0-6-2.7-6-6V6c0-3.3,2.7-6,6-6h36c3.3,0,6,2.7,6,6v36C48,45.3,45.3,48,42,48z"/>
			</g>
			<rect x="2.9" y="2.9" display="none" fill="#CCCCCC" width="42.8" height="33.4"/>
			<g>
				<path d="M42,48H6c-3.3,0-6-2.7-6-6V6c0-3.3,2.7-6,6-6h36c3.3,0,6,2.7,6,6v36C48,45.3,45.3,48,42,48z M6.9,43.9h34.3
					c1.5,0,2.7-1.2,2.7-2.7V6.9c0-1.5-1.2-2.7-2.7-2.7H6.9c-1.5,0-2.7,1.2-2.7,2.7v34.3C4.1,42.6,5.4,43.9,6.9,43.9z"/>
			</g>
			<g>
				<rect x="1" y="34.6" width="46" height="3.7"/>
			</g>
			<polygon fill="#FFFFFF" points="11.6,16.1 21.4,16.1 24,12 19.1,7.1 15.5,8.4 13.8,10.8 10.9,11.6 			"/>
			<g>
				<path d="M19,18h-6c-2.2,0-4-1.8-4-4c0-2.3,2-4.2,4.4-4c0.8-2.4,3.1-4,5.6-4c3.3,0,6,2.7,6,6S22.3,18,19,18z M13.6,12
					c-0.9,0-1.7,0.8-1.7,1.7s0.8,1.7,1.7,1.7h5.1c1.9,0,3.4-1.5,3.4-3.4s-1.5-3.4-3.4-3.4c-1.7,0-3.1,1.2-3.4,2.9l-0.3,1.1l-0.9-0.4
					C14,12,13.8,12,13.6,12z"/>
			</g>
			<g>
				<path d="M42.2,36.3l-6.6-12.7c-0.4-0.8-1.1-2.1-2-2.1c-0.8,0-1.5,1.3-1.9,2l-5.3,9.6c-0.2,0.3-0.5,0.5-0.8,0.5
					c-0.3,0-0.6-0.1-0.8-0.4c0-0.1-4.4-5.2-8.6-5.2c-3.4,0-6.1,5.5-7.1,8l-2.9-1.4C6.5,33.5,10.5,24,16,24c4,0,7.3,3.3,8.9,5.2
					l5.3-9c0.8-1.3,2.2-2.2,3.8-2.2c1.7,0,3.2,0.9,3.9,2.4l7.1,14.1L42.2,36.3z"/>
			</g>
		</g>
	</g>
</g>
<g id="Layer_2">
</g>
</svg>
